<svg width="580" height="400" xmlns="http://www.w3.org/2000/svg">
 <!-- Created with Method Draw - http://github.com/duopixel/Method-Draw/ -->
 <g>
  <title>background</title>
  <rect fill="#fff" id="canvas_background" height="402" width="582" y="-1" x="-1"/>
  <g display="none" overflow="visible" y="0" x="0" height="100%" width="100%" id="canvasGrid">
   <rect fill="url(#gridpattern)" stroke-width="0" y="0" x="0" height="100%" width="100%"/>
  </g>
 </g>
 <g>
  <title>Layer 1</title>
  <path d="m66.5,57.5c1,1 6.319283,7.774734 14,19c9.398445,13.735695 19.083107,29.947556 26,41c8.097755,12.939331 16.31884,27.819977 27,36c16.075745,12.311401 38.942398,16.999268 65,18c32.975693,1.266418 83.938049,-10.176178 115,-21c37.925598,-13.21553 64.881561,-23.401688 88,-30c14.92804,-4.260666 29,-8 35,-8c5,0 8.228363,-1.148048 11,0c3.919678,1.623589 5.432892,6.802429 8,13c3.630463,8.764694 6.993988,18.83551 8,28c0.982056,8.946259 0.601746,17.087402 -1,26c-1.458618,8.11618 -4,14 -7,22c-3,8 -6.73764,14.237381 -14,22c-5.796997,6.19635 -10.465454,11.662689 -19,18c-7.574188,5.624207 -16.664886,9.978165 -30,14c-17.653656,5.32428 -40.944519,7.999329 -68,9c-32.977448,1.219727 -63.35318,1.790924 -88,-4c-16.31868,-3.834167 -34.093155,-10.796646 -43,-15c-8.088776,-3.817291 -10.693436,-6.458801 -12,-7c-0.923874,-0.38269 -0.569504,1.132996 -2,5c-1.55159,4.194351 -4.671219,10.212601 -8,15c-3.655426,5.257172 -6.708939,9.507385 -10,15c-3.914337,6.532837 -5,10 -7,13c-2,3 -7.079697,5.847961 -11,8c-5.11145,2.805908 -12.838089,4.465515 -18,6c-4.887634,1.452942 -8,2 -10,2c-1,0 -1,1 -1,1c0,3 1.917534,5.056641 4,8c2.887863,4.081696 7.881371,6.293488 15,9c8.867554,3.371429 20.996872,6.038208 33,7c12.99675,1.041382 24.010544,1.890076 35,3c9.009552,0.909973 20,1 31,1c14,0 33.090057,-1.686401 51,-7c19.101898,-5.667236 30.659454,-10.912048 43,-15c7.827881,-2.593079 13.878571,-4.493469 17,-5c3.948364,-0.640717 8,0 10,0c2,0 4,0 7,0c3,0 5.705475,0.346191 8,2c1.813995,1.307465 5,3 6,4c1,1 3.080261,1.31073 6,2c4.352509,1.027496 7.907776,2.496216 12,3c5.955048,0.733093 11,0 15,0c7,0 12.091156,-2.795685 19,-6c4.057007,-1.881653 9.305389,-4.361664 14,-7c4.358826,-2.449615 8.412079,-2.968536 12,-5c2.461304,-1.393555 3,-3 4,-4l0,-1" id="svg_1" stroke-width="1.5" stroke="#000" fill="none"/>
 </g>
</svg>