<svg width="580" height="400" xmlns="http://www.w3.org/2000/svg">
 <!-- Created with Method Draw - http://github.com/duopixel/Method-Draw/ -->
 <g>
  <title>background</title>
  <rect fill="#fff" id="canvas_background" height="402" width="582" y="-1" x="-1"/>
  <g display="none" overflow="visible" y="0" x="0" height="100%" width="100%" id="canvasGrid">
   <rect fill="url(#gridpattern)" stroke-width="0" y="0" x="0" height="100%" width="100%"/>
  </g>
 </g>
 <g>
  <title>Layer 1</title>
  <path d="m180.5,120.5c1,0 12,0 24,0c18,0 38.318436,-1.028374 61,-9c25.402588,-8.927956 48.587311,-20.946579 60,-28c8.5065,-5.257309 16.346191,-10.70546 18,-13c1.307465,-1.813995 1.187347,-3.20681 -1,-5c-2.78833,-2.285881 -12.207001,-5.213249 -25,-9c-11.223358,-3.322132 -21,-5 -29,-5c-8,0 -17.488586,-0.305023 -27,4c-8.59462,3.890068 -14,8 -18,12c-2,2 -3.493454,3.878555 -4,7c-0.320358,1.974174 -1,5 -2,9c-1,4 -1.375397,11.118088 -3,18c-1.453079,6.155365 -2,11 -2,21c0,5 0,10 0,16c0,6 1.731445,12.076889 3,16c1.656845,5.123947 4,11 7,15c3,4 7,8 11,11c4,3 9.667084,5.943726 17,8c6.808441,1.909195 15,2 24,2c7,0 14.09317,0.203354 23,-4c4.044373,-1.908646 10.372009,-4.385101 14,-7c3.441803,-2.480713 4.458801,-3.693436 5,-5c0.38269,-0.923874 0.229767,-2.026749 0,-3c-0.513733,-2.176254 -2,-4 -2,-6c0,-1 -2,-1 -2,-2c0,0 -1,0 -4,0c-5,0 -10.03894,-0.7883 -18,0c-5.074219,0.502441 -11.132019,2.75531 -15,5c-3.118469,1.809723 -6.190277,2.881516 -8,6c-2.24469,3.867996 -4.288574,6.868286 -6,11c-1.210144,2.92157 -2.496216,6.907791 -3,11c-0.488739,3.970032 0,10 0,15c0,5 0,9 0,13c0,5 0,8 0,12c0,4 1.33197,8.229355 3,12c1.458649,3.297333 4.691467,6.858627 12,9c5.837372,1.710327 13.958466,3.499237 23,4c8.986237,0.497711 18,0 26,0c9,0 13.887329,-2.376678 20,-4c4.928192,-1.308746 9.305389,-2.361679 14,-5c4.358826,-2.449631 7.658142,-5.36702 13,-10c3.777283,-3.276016 7,-5 9,-7l1,-1l1,0l0,-1" id="svg_5" fill-opacity="null" stroke-opacity="null" stroke-width="1.5" stroke="#000" fill="none"/>
 </g>
</svg>